# xmcd CD database file
#
# Track frame offsets:
#	150
#	20814
#	46650
#	67325
#
# Disc length: 1238 seconds
#
# Revision: 2
# Processed by: cddbd v1.5.2PL0 Copyright (c) Steve Scherf et al.
# Submitted via: CDex 1.70beta2
#
DISCID=3404d404
DTITLE=島みやえい子 - Super scription of data
DYEAR=2009
DGENRE=I've
TTITLE0=Super scription of data
TTITLE1=electric universe
TTITLE2=Super scription of data -Instrumental-
TTITLE3=electric universe -Instrumental-
EXTD=YEAR: 2009
EXTT0=
EXTT1=
EXTT2=
EXTT3=
PLAYORDER=
